<?xml version="1.0" standalone="no"?>
<!DOCTYPE svg PUBLIC "-//W3C//DTD SVG 20010904//EN"
 "http://www.w3.org/TR/2001/REC-SVG-20010904/DTD/svg10.dtd">
<svg version="1.0" xmlns="http://www.w3.org/2000/svg"
 width="232.000000pt" height="49.000000pt" viewBox="0 0 232.000000 49.000000"
 preserveAspectRatio="xMidYMid meet">
<metadata>
Created by potrace 1.16, written by Peter Selinger 2001-2019
</metadata>
<g transform="translate(0.000000,49.000000) scale(0.100000,-0.100000)"
fill="#000000" stroke="none">
<path d="M50 215 l0 -215 1100 0 1100 0 0 215 0 215 -1032 0 c-914 -1 -1029
-3 -999 -16 33 -14 33 -15 16 -34 -9 -10 -27 -21 -39 -23 -11 -3 -3 -3 19 -2
22 2 48 6 58 10 14 6 17 2 17 -23 0 -16 -8 -40 -19 -53 -10 -13 -21 -41 -25
-61 -4 -21 -11 -38 -17 -38 -6 0 -5 8 2 21 8 15 8 24 0 32 -8 8 -11 5 -11 -12
l0 -23 -21 23 -21 24 20 -35 c11 -19 23 -46 27 -60 8 -25 8 -25 -14 -6 -11 11
-21 27 -21 38 0 10 -6 18 -14 18 -8 0 -17 13 -21 30 -4 17 -11 30 -16 30 -5 0
-9 9 -9 20 0 11 7 20 15 20 11 0 15 10 14 33 -1 23 -3 26 -6 10 -6 -29 -29
-30 -36 -1 -4 15 1 28 18 44 13 12 26 19 29 16 3 -3 6 0 6 6 0 8 -21 12 -60
12 l-60 0 0 -215z m1380 170 c-13 -14 -26 -23 -28 -20 -7 7 29 45 41 45 6 0 0
-11 -13 -25z m-526 -15 c24 -9 63 -56 54 -65 -2 -3 -22 5 -44 16 -44 23 -110
20 -152 -7 -40 -26 -40 -5 0 32 40 36 89 45 142 24z m516 -43 c0 -8 15 -14 40
-15 22 -2 40 1 40 5 0 4 14 8 30 8 35 0 36 -4 10 -38 -11 -14 -20 -33 -21 -44
0 -10 -3 -13 -6 -5 -8 20 -23 14 -24 -10 0 -23 0 -23 -10 -2 -6 11 -26 26 -44
33 -31 11 -34 16 -33 47 1 31 18 51 18 21z m785 -42 c6 -2 -9 -4 -32 -4 -24
-1 -43 -5 -43 -11 0 -5 -6 -10 -14 -10 -17 0 -29 16 -22 29 5 8 85 5 111 -4z
m-1931 -40 c-4 -8 -1 -15 5 -15 6 0 8 -7 5 -15 -10 -25 -24 -17 -24 15 0 17 4
30 10 30 5 0 7 -7 4 -15z m-124 -33 c0 -7 9 -23 20 -35 l20 -21 -29 -29 c-24
-25 -32 -27 -50 -18 -17 10 -20 20 -18 60 1 27 6 46 11 43 5 -3 6 2 3 12 -4 9
-3 14 2 11 5 -3 13 0 17 6 7 13 24 -7 24 -29z m1914 -33 c-8 -14 -34 -11 -34
4 0 6 3 22 6 35 l7 23 13 -27 c8 -14 11 -30 8 -35z m62 50 c10 -17 -13 -36
-27 -22 -12 12 -4 33 11 33 5 0 12 -5 16 -11z m-1171 -29 c-10 -32 -63 -60
-113 -60 -37 0 -50 6 -79 35 -42 42 -38 53 9 29 47 -25 121 -23 156 3 31 24
36 23 27 -7z m-675 -20 c0 -5 -2 -10 -4 -10 -3 0 -8 5 -11 10 -3 6 -1 10 4 10
6 0 11 -4 11 -10z m508 -58 c-5 -24 -52 -23 -56 2 -2 10 2 22 9 27 18 11 51
-9 47 -29z"/>
</g>
</svg>
