<?xml version="1.0" encoding="UTF-8" standalone="no"?>
<svg
   xml:lang="en"
   id="bd1ee6007a6b433bbcfe4df49c9c2f8e-0"
   class="displacy"
   width="1625"
   height="312.0"
   direction="ltr"
   style="max-width: none; height: 312.0px; color: #000000; background: #ffffff; font-family: Arial; direction: ltr"
   version="1.1"
   sodipodi:docname="dependency-graph-text-as-paths.svg"
   inkscape:version="1.4 (e7c3feb100, 2024-10-09)"
   xmlns:inkscape="http://www.inkscape.org/namespaces/inkscape"
   xmlns:sodipodi="http://sodipodi.sourceforge.net/DTD/sodipodi-0.dtd"
   xmlns="http://www.w3.org/2000/svg"
   xmlns:svg="http://www.w3.org/2000/svg">
  <defs
     id="defs26" />
  <sodipodi:namedview
     id="namedview26"
     pagecolor="#ffffff"
     bordercolor="#000000"
     borderopacity="0.25"
     inkscape:showpageshadow="2"
     inkscape:pageopacity="0.0"
     inkscape:pagecheckerboard="0"
     inkscape:deskcolor="#d1d1d1"
     inkscape:zoom="0.76628618"
     inkscape:cx="812.35969"
     inkscape:cy="28.709901"
     inkscape:window-width="1914"
     inkscape:window-height="1055"
     inkscape:window-x="0"
     inkscape:window-y="19"
     inkscape:window-maximized="1"
     inkscape:current-layer="g21" />
  <g
     id="text2"
     style="font-size:32px;-inkscape-font-specification:'Arial, Normal';text-anchor:middle"
     class="displacy-token"
     aria-label="TellVERB">
    <path
       d="M 37.242187,202.42187 V 222 h -2.96875 v -19.57813 h -7.5625 v -2.4375 h 18.09375 v 2.4375 z m 9.0625,11.71875 q 0,2.90625 1.203125,4.48438 1.203125,1.57812 3.515625,1.57812 1.828125,0 2.921875,-0.73437 1.109375,-0.73438 1.5,-1.85938 l 2.46875,0.70313 q -1.515625,4 -6.890625,4 -3.75,0 -5.71875,-2.23438 -1.953125,-2.23437 -1.953125,-6.64062 0,-4.1875 1.953125,-6.42188 1.96875,-2.23437 5.609375,-2.23437 7.453125,0 7.453125,8.98437 v 0.375 z m 9.15625,-2.15625 q -0.234375,-2.67187 -1.359375,-3.89062 -1.125,-1.23438 -3.234375,-1.23438 -2.046875,0 -3.25,1.375 -1.1875,1.35938 -1.28125,3.75 z M 61.945312,222 v -23.1875 h 2.8125 V 222 Z m 7.109375,0 v -23.1875 h 2.8125 V 222 Z"
       id="path17" />
    <path
       d="M 18.648437,286 H 15.554688 L 6.5703125,263.98437 h 3.140625 l 6.0937505,15.5 1.312499,3.89063 1.3125,-3.89063 6.0625,-15.5 h 3.140625 z m 11.75,0 v -22.01563 h 16.703125 v 2.4375 h -13.71875 v 7.0625 h 12.78125 v 2.40625 h -12.78125 v 7.67188 H 47.742187 V 286 Z m 36.90625,0 -5.71875,-9.14063 H 54.726562 V 286 h -2.984375 v -22.01563 h 10.359375 q 3.71875,0 5.734375,1.67188 2.03125,1.65625 2.03125,4.625 0,2.45312 -1.4375,4.125 -1.421875,1.67187 -3.9375,2.10937 l 6.25,9.48438 z m -0.4375,-15.6875 q 0,-1.92188 -1.3125,-2.92188 -1.296875,-1.01562 -3.75,-1.01562 h -7.078125 v 8.125 h 7.203125 q 2.359375,0 3.640625,-1.09375 1.296875,-1.10938 1.296875,-3.09375 z m 25.015625,9.48437 q 0,2.9375 -2.140625,4.57813 Q 87.601562,286 83.789062,286 h -8.9375 v -22.01563 h 8 q 7.75,0 7.75,5.34375 0,1.95313 -1.09375,3.28125 -1.09375,1.32813 -3.09375,1.78125 2.625,0.3125 4.046875,1.76563 1.421875,1.4375 1.421875,3.64062 z m -4.28125,-10.10937 q 0,-1.78125 -1.21875,-2.54688 -1.21875,-0.76562 -3.53125,-0.76562 h -5.015625 v 6.96875 h 5.015625 q 2.390625,0 3.5625,-0.89063 1.1875,-0.90625 1.1875,-2.76562 z m 1.265625,9.875 q 0,-3.89063 -5.46875,-3.89063 h -5.5625 v 7.9375 h 5.796875 q 2.734375,0 3.984375,-1.01562 1.25,-1.01563 1.25,-3.03125 z"
       id="path18" />
  </g>
  <g
     id="text4"
     style="font-size:32px;-inkscape-font-specification:'Arial, Normal';text-anchor:middle"
     class="displacy-token"
     aria-label="mePRON">
    <path
       d="m 214.77344,222 v -10.71875 q 0,-2.45313 -0.67188,-3.39063 -0.67187,-0.9375 -2.42187,-0.9375 -1.79688,0 -2.84375,1.375 -1.04688,1.375 -1.04688,3.875 V 222 h -2.79687 v -13.29688 q 0,-2.95312 -0.0937,-3.60937 h 2.65625 q 0.0156,0.0781 0.0312,0.42187 0.0156,0.34375 0.0312,0.79688 0.0312,0.4375 0.0625,1.67187 h 0.0469 q 0.90625,-1.79687 2.07813,-2.5 1.17187,-0.70312 2.85937,-0.70312 1.92188,0 3.03125,0.76562 1.125,0.76563 1.5625,2.4375 h 0.0469 q 0.875,-1.70312 2.10937,-2.45312 1.25,-0.75 3.01563,-0.75 2.5625,0 3.71875,1.39062 1.17187,1.39063 1.17187,4.5625 V 222 h -2.78125 v -10.71875 q 0,-2.45313 -0.67187,-3.39063 -0.67188,-0.9375 -2.42188,-0.9375 -1.84375,0 -2.875,1.375 -1.01562,1.35938 -1.01562,3.875 V 222 Z m 18.96875,-7.85938 q 0,2.90625 1.20312,4.48438 1.20313,1.57812 3.51563,1.57812 1.82812,0 2.92187,-0.73437 1.10938,-0.73438 1.5,-1.85938 l 2.46875,0.70313 q -1.51562,4 -6.89062,4 -3.75,0 -5.71875,-2.23438 -1.95313,-2.23437 -1.95313,-6.64062 0,-4.1875 1.95313,-6.42188 1.96875,-2.23437 5.60937,-2.23437 7.45313,0 7.45313,8.98437 v 0.375 z m 9.15625,-2.15625 q -0.23438,-2.67187 -1.35938,-3.89062 -1.125,-1.23438 -3.23437,-1.23438 -2.04688,0 -3.25,1.375 -1.1875,1.35938 -1.28125,3.75 z"
       id="path15" />
    <path
       d="m 198.42969,270.60937 q 0,3.125 -2.04688,4.96875 -2.03125,1.84375 -5.53125,1.84375 h -6.46875 V 286 h -2.98437 v -22.01563 h 9.26562 q 3.70313,0 5.73438,1.73438 2.03125,1.73437 2.03125,4.89062 z m -3,0.0312 q 0,-4.26562 -5.125,-4.26562 h -5.92188 v 8.6875 h 6.04688 q 5,0 5,-4.42188 z m 22.875,15.35938 -5.71875,-9.14063 h -6.85938 V 286 h -2.98437 v -22.01563 h 10.35937 q 3.71875,0 5.73438,1.67188 2.03125,1.65625 2.03125,4.625 0,2.45312 -1.4375,4.125 -1.42188,1.67187 -3.9375,2.10937 l 6.25,9.48438 z m -0.4375,-15.6875 q 0,-1.92188 -1.3125,-2.92188 -1.29688,-1.01562 -3.75,-1.01562 h -7.07813 v 8.125 h 7.20313 q 2.35937,0 3.64062,-1.09375 1.29688,-1.10938 1.29688,-3.09375 z m 28.71875,4.57812 q 0,3.45313 -1.32813,6.04688 -1.3125,2.59375 -3.78125,3.98437 -2.46875,1.39063 -5.82812,1.39063 -3.39063,0 -5.85938,-1.375 -2.45312,-1.375 -3.75,-3.96875 -1.29687,-2.60938 -1.29687,-6.07813 0,-5.28125 2.89062,-8.25 2.89063,-2.98437 8.04688,-2.98437 3.35937,0 5.82812,1.34375 2.46875,1.32812 3.76563,3.875 1.3125,2.54687 1.3125,6.01562 z m -3.04688,0 q 0,-4.10937 -2.0625,-6.45312 -2.04687,-2.34375 -5.79687,-2.34375 -3.78125,0 -5.84375,2.3125 -2.0625,2.3125 -2.0625,6.48437 0,4.14063 2.07812,6.57813 2.09375,2.42187 5.79688,2.42187 3.8125,0 5.84375,-2.34375 2.04687,-2.35937 2.04687,-6.65625 z M 265.02344,286 l -11.78125,-18.75 0.0781,1.51562 0.0781,2.60938 V 286 h -2.65625 v -22.01563 h 3.46875 l 11.90625,18.875 q -0.1875,-3.0625 -0.1875,-4.4375 v -14.4375 h 2.6875 V 286 Z"
       id="path16" />
  </g>
  <g
     id="text6"
     style="font-size:32px;-inkscape-font-specification:'Arial, Normal';text-anchor:middle"
     class="displacy-token"
     aria-label="theDET">
    <path
       d="m 386.41406,221.875 q -1.39062,0.375 -2.84375,0.375 -3.375,0 -3.375,-3.82813 v -11.28125 h -1.95312 v -2.04687 h 2.0625 l 0.82812,-3.78125 h 1.875 v 3.78125 h 3.125 v 2.04687 h -3.125 v 10.67188 q 0,1.21875 0.39063,1.71875 0.40625,0.48437 1.39062,0.48437 0.5625,0 1.625,-0.21875 z m 5.1875,-13.89063 q 0.90625,-1.65625 2.17188,-2.42187 1.28125,-0.78125 3.23437,-0.78125 2.75,0 4.04688,1.375 1.3125,1.35937 1.3125,4.57812 V 222 h -2.82813 v -10.71875 q 0,-1.78125 -0.32812,-2.64063 -0.32813,-0.875 -1.07813,-1.28125 -0.75,-0.40625 -2.07812,-0.40625 -1.98438,0 -3.1875,1.375 -1.1875,1.375 -1.1875,3.70313 V 222 h -2.8125 v -23.1875 h 2.8125 v 6.03125 q 0,0.95312 -0.0625,1.96875 -0.0469,1.01562 -0.0625,1.17187 z m 17.15625,6.15625 q 0,2.90625 1.20313,4.48438 1.20312,1.57812 3.51562,1.57812 1.82813,0 2.92188,-0.73437 1.10937,-0.73438 1.5,-1.85938 l 2.46875,0.70313 q -1.51563,4 -6.89063,4 -3.75,0 -5.71875,-2.23438 -1.95312,-2.23437 -1.95312,-6.64062 0,-4.1875 1.95312,-6.42188 1.96875,-2.23437 5.60938,-2.23437 7.45312,0 7.45312,8.98437 v 0.375 z m 9.15625,-2.15625 q -0.23437,-2.67187 -1.35937,-3.89062 -1.125,-1.23438 -3.23438,-1.23438 -2.04687,0 -3.25,1.375 -1.1875,1.35938 -1.28125,3.75 z"
       id="path13" />
    <path
       d="m 389.57812,274.76562 q 0,3.40625 -1.32812,5.96875 -1.32813,2.54688 -3.76563,3.90625 Q 382.04687,286 378.85937,286 H 370.625 v -22.01563 h 7.28125 q 5.59375,0 8.625,2.8125 3.04687,2.79688 3.04687,7.96875 z m -3,0 q 0,-4.09375 -2.25,-6.23437 -2.23437,-2.15625 -6.48437,-2.15625 h -4.23438 v 17.23437 h 4.90625 q 2.42188,0 4.25,-1.0625 1.84375,-1.0625 2.82813,-3.0625 0.98437,-2 0.98437,-4.71875 z M 393.73437,286 v -22.01563 h 16.70313 v 2.4375 h -13.71875 v 7.0625 H 409.5 v 2.40625 h -12.78125 v 7.67188 h 14.35937 V 286 Z m 29.96875,-19.57813 V 286 h -2.96875 v -19.57813 h -7.5625 v -2.4375 h 18.09375 v 2.4375 z"
       id="path14" />
  </g>
  <g
     id="text8"
     style="font-size:32px;-inkscape-font-specification:'Arial, Normal';text-anchor:middle"
     class="displacy-token"
     aria-label="nameNOUN">
    <path
       d="m 547.86719,222 v -10.71875 q 0,-1.67188 -0.32813,-2.59375 -0.32812,-0.92188 -1.04687,-1.32813 -0.71875,-0.40625 -2.10938,-0.40625 -2.03125,0 -3.20312,1.39063 -1.17188,1.39062 -1.17188,3.85937 V 222 h -2.8125 v -13.29688 q 0,-2.95312 -0.0937,-3.60937 h 2.65625 q 0.0156,0.0781 0.0312,0.42187 0.0156,0.34375 0.0312,0.79688 0.0312,0.4375 0.0625,1.67187 h 0.0469 q 0.96875,-1.75 2.23437,-2.46875 1.28125,-0.73437 3.17188,-0.73437 2.78125,0 4.0625,1.39062 1.29687,1.375 1.29687,4.5625 V 222 Z m 11.375,0.3125 q -2.54688,0 -3.82813,-1.34375 -1.28125,-1.34375 -1.28125,-3.6875 0,-2.625 1.71875,-4.03125 1.73438,-1.40625 5.57813,-1.5 l 3.79687,-0.0625 v -0.92188 q 0,-2.0625 -0.875,-2.95312 -0.875,-0.89063 -2.75,-0.89063 -1.89062,0 -2.75,0.64063 -0.85937,0.64062 -1.03125,2.04687 l -2.9375,-0.26562 q 0.71875,-4.5625 6.78125,-4.5625 3.1875,0 4.79688,1.46875 1.60937,1.45312 1.60937,4.21875 V 217.75 q 0,1.25 0.32813,1.89062 0.32812,0.625 1.25,0.625 0.40625,0 0.92187,-0.10937 v 1.75 q -1.0625,0.25 -2.17187,0.25 -1.5625,0 -2.28125,-0.8125 -0.70313,-0.82813 -0.79688,-2.57813 h -0.0937 q -1.07812,1.9375 -2.51562,2.75 -1.42188,0.79688 -3.46875,0.79688 z m 0.64062,-2.10938 q 1.54688,0 2.75,-0.70312 1.20313,-0.70313 1.89063,-1.92188 0.70312,-1.23437 0.70312,-2.53125 v -1.39062 l -3.07812,0.0625 q -1.98438,0.0312 -3.01563,0.40625 -1.01562,0.375 -1.5625,1.15625 -0.54687,0.78125 -0.54687,2.04687 0,1.375 0.73437,2.125 0.75,0.75 2.125,0.75 z M 582.57031,222 v -10.71875 q 0,-2.45313 -0.67187,-3.39063 -0.67188,-0.9375 -2.42188,-0.9375 -1.79687,0 -2.84375,1.375 -1.04687,1.375 -1.04687,3.875 V 222 h -2.79688 v -13.29688 q 0,-2.95312 -0.0937,-3.60937 h 2.65625 q 0.0156,0.0781 0.0312,0.42187 0.0156,0.34375 0.0312,0.79688 0.0312,0.4375 0.0625,1.67187 h 0.0469 q 0.90625,-1.79687 2.07812,-2.5 1.17188,-0.70312 2.85938,-0.70312 1.92187,0 3.03125,0.76562 1.125,0.76563 1.5625,2.4375 h 0.0469 q 0.875,-1.70312 2.10938,-2.45312 1.25,-0.75 3.01562,-0.75 2.5625,0 3.71875,1.39062 1.17188,1.39063 1.17188,4.5625 V 222 h -2.78125 v -10.71875 q 0,-2.45313 -0.67188,-3.39063 -0.67187,-0.9375 -2.42187,-0.9375 -1.84375,0 -2.875,1.375 -1.01563,1.35938 -1.01563,3.875 V 222 Z m 18.96875,-7.85938 q 0,2.90625 1.20313,4.48438 1.20312,1.57812 3.51562,1.57812 1.82813,0 2.92188,-0.73437 1.10937,-0.73438 1.5,-1.85938 l 2.46875,0.70313 q -1.51563,4 -6.89063,4 -3.75,0 -5.71875,-2.23438 -1.95312,-2.23437 -1.95312,-6.64062 0,-4.1875 1.95312,-6.42188 1.96875,-2.23437 5.60938,-2.23437 7.45312,0 7.45312,8.98437 v 0.375 z m 9.15625,-2.15625 q -0.23437,-2.67187 -1.35937,-3.89062 -1.125,-1.23438 -3.23438,-1.23438 -2.04687,0 -3.25,1.375 -1.1875,1.35938 -1.28125,3.75 z"
       id="path11" />
    <path
       d="m 544.79687,286 -11.78125,-18.75 0.0781,1.51562 0.0781,2.60938 V 286 h -2.65625 v -22.01563 h 3.46875 l 11.90625,18.875 q -0.1875,-3.0625 -0.1875,-4.4375 v -14.4375 h 2.6875 V 286 Z m 29.5625,-11.10938 q 0,3.45313 -1.32812,6.04688 -1.3125,2.59375 -3.78125,3.98437 -2.46875,1.39063 -5.82813,1.39063 -3.39062,0 -5.85937,-1.375 -2.45313,-1.375 -3.75,-3.96875 -1.29688,-2.60938 -1.29688,-6.07813 0,-5.28125 2.89063,-8.25 2.89062,-2.98437 8.04687,-2.98437 3.35938,0 5.82813,1.34375 2.46875,1.32812 3.76562,3.875 1.3125,2.54687 1.3125,6.01562 z m -3.04687,0 q 0,-4.10937 -2.0625,-6.45312 -2.04688,-2.34375 -5.79688,-2.34375 -3.78125,0 -5.84375,2.3125 -2.0625,2.3125 -2.0625,6.48437 0,4.14063 2.07813,6.57813 2.09375,2.42187 5.79687,2.42187 3.8125,0 5.84375,-2.34375 2.04688,-2.35937 2.04688,-6.65625 z m 16,11.42188 q -2.70313,0 -4.71875,-0.98438 -2.01563,-0.98437 -3.125,-2.85937 -1.10938,-1.875 -1.10938,-4.46875 v -14.01563 h 2.98438 V 277.75 q 0,3.01562 1.53125,4.57812 1.53125,1.5625 4.42187,1.5625 2.96875,0 4.60938,-1.60937 1.65625,-1.625 1.65625,-4.73438 v -13.5625 h 2.96875 v 13.73438 q 0,2.67187 -1.14063,4.60937 -1.125,1.9375 -3.20312,2.96875 -2.0625,1.01563 -4.875,1.01563 z M 615.90625,286 604.125,267.25 l 0.0781,1.51562 0.0781,2.60938 V 286 H 601.625 v -22.01563 h 3.46875 L 617,282.85937 q -0.1875,-3.0625 -0.1875,-4.4375 v -14.4375 H 619.5 V 286 Z"
       id="path12" />
  </g>
  <g
     id="text10"
     style="font-size:32px;-inkscape-font-specification:'Arial, Normal';text-anchor:middle"
     class="displacy-token"
     aria-label="ofADP">
    <path
       d="m 753.10937,213.53125 q 0,4.4375 -1.95312,6.60937 -1.95313,2.17188 -5.67188,2.17188 -3.70312,0 -5.59375,-2.25 Q 738,217.79687 738,213.53125 q 0,-8.75 7.57812,-8.75 3.875,0 5.70313,2.14062 1.82812,2.125 1.82812,6.60938 z m -2.95312,0 q 0,-3.5 -1.04688,-5.07813 -1.03125,-1.59375 -3.48437,-1.59375 -2.46875,0 -3.57813,1.625 -1.09375,1.60938 -1.09375,5.04688 0,3.34375 1.07813,5.03125 1.09375,1.67187 3.42187,1.67187 2.53125,0 3.60938,-1.625 1.09375,-1.625 1.09375,-5.07812 z m 9.9375,-6.39063 V 222 h -2.8125 v -14.85938 h -2.375 v -2.04687 h 2.375 v -1.90625 q 0,-2.3125 1.01562,-3.32813 1.01563,-1.01562 3.10938,-1.01562 1.17187,0 1.98437,0.1875 v 2.14062 q -0.70312,-0.125 -1.25,-0.125 -1.07812,0 -1.5625,0.54688 -0.48437,0.54687 -0.48437,1.98437 v 1.51563 h 3.29687 v 2.04687 z"
       id="path9" />
    <path
       d="m 735.33594,286 -2.51563,-6.4375 H 722.78906 L 720.25781,286 h -3.09375 l 8.98438,-22.01563 h 3.39062 L 738.38281,286 Z m -7.53125,-19.76563 -0.14063,0.4375 q -0.39062,1.29688 -1.15625,3.32813 l -2.8125,7.23437 h 8.23438 l -2.82813,-7.26562 q -0.4375,-1.07813 -0.875,-2.4375 z m 32.21875,8.53125 q 0,3.40625 -1.32813,5.96875 -1.32812,2.54688 -3.76562,3.90625 Q 752.49219,286 749.30469,286 h -8.23438 v -22.01563 h 7.28125 q 5.59375,0 8.625,2.8125 3.04688,2.79688 3.04688,7.96875 z m -3,0 q 0,-4.09375 -2.25,-6.23437 -2.23438,-2.15625 -6.48438,-2.15625 h -4.23437 v 17.23437 h 4.90625 q 2.42187,0 4.25,-1.0625 1.84375,-1.0625 2.82812,-3.0625 0.98438,-2 0.98438,-4.71875 z m 24.1875,-4.15625 q 0,3.125 -2.04688,4.96875 -2.03125,1.84375 -5.53125,1.84375 h -6.46875 V 286 h -2.98437 v -22.01563 h 9.26562 q 3.70313,0 5.73438,1.73438 2.03125,1.73437 2.03125,4.89062 z m -3,0.0312 q 0,-4.26562 -5.125,-4.26562 h -5.92188 v 8.6875 h 6.04688 q 5,0 5,-4.42188 z"
       id="path10" />
  </g>
  <g
     id="text12"
     style="font-size:32px;-inkscape-font-specification:'Arial, Normal';text-anchor:middle"
     class="displacy-token"
     aria-label="theDET">
    <path
       d="m 911.41406,221.875 q -1.39062,0.375 -2.84375,0.375 -3.375,0 -3.375,-3.82813 v -11.28125 h -1.95312 v -2.04687 h 2.0625 l 0.82812,-3.78125 h 1.875 v 3.78125 h 3.125 v 2.04687 h -3.125 v 10.67188 q 0,1.21875 0.39063,1.71875 0.40625,0.48437 1.39062,0.48437 0.5625,0 1.625,-0.21875 z m 5.1875,-13.89063 q 0.90625,-1.65625 2.17188,-2.42187 1.28125,-0.78125 3.23437,-0.78125 2.75,0 4.04688,1.375 1.3125,1.35937 1.3125,4.57812 V 222 h -2.82813 v -10.71875 q 0,-1.78125 -0.32812,-2.64063 -0.32813,-0.875 -1.07813,-1.28125 -0.75,-0.40625 -2.07812,-0.40625 -1.98438,0 -3.1875,1.375 -1.1875,1.375 -1.1875,3.70313 V 222 h -2.8125 v -23.1875 h 2.8125 v 6.03125 q 0,0.95312 -0.0625,1.96875 -0.0469,1.01562 -0.0625,1.17187 z m 17.15625,6.15625 q 0,2.90625 1.20313,4.48438 1.20312,1.57812 3.51562,1.57812 1.82813,0 2.92188,-0.73437 1.10937,-0.73438 1.5,-1.85938 l 2.46875,0.70313 q -1.51563,4 -6.89063,4 -3.75,0 -5.71875,-2.23438 -1.95312,-2.23437 -1.95312,-6.64062 0,-4.1875 1.95312,-6.42188 1.96875,-2.23437 5.60938,-2.23437 7.45312,0 7.45312,8.98437 v 0.375 z m 9.15625,-2.15625 q -0.23437,-2.67187 -1.35937,-3.89062 -1.125,-1.23438 -3.23438,-1.23438 -2.04687,0 -3.25,1.375 -1.1875,1.35938 -1.28125,3.75 z"
       id="path7" />
    <path
       d="m 914.57812,274.76562 q 0,3.40625 -1.32812,5.96875 -1.32813,2.54688 -3.76563,3.90625 Q 907.04687,286 903.85937,286 H 895.625 v -22.01563 h 7.28125 q 5.59375,0 8.625,2.8125 3.04687,2.79688 3.04687,7.96875 z m -3,0 q 0,-4.09375 -2.25,-6.23437 -2.23437,-2.15625 -6.48437,-2.15625 h -4.23438 v 17.23437 h 4.90625 q 2.42188,0 4.25,-1.0625 1.84375,-1.0625 2.82813,-3.0625 0.98437,-2 0.98437,-4.71875 z M 918.73437,286 v -22.01563 h 16.70313 v 2.4375 h -13.71875 v 7.0625 H 934.5 v 2.40625 h -12.78125 v 7.67188 h 14.35937 V 286 Z m 29.96875,-19.57813 V 286 h -2.96875 v -19.57813 h -7.5625 v -2.4375 h 18.09375 v 2.4375 z"
       id="path8" />
  </g>
  <g
     id="text14"
     style="font-size:32px;-inkscape-font-specification:'Arial, Normal';text-anchor:middle"
     class="displacy-token"
     aria-label="authorNOUN">
    <path
       d="m 1061.1016,222.3125 q -2.5469,0 -3.8282,-1.34375 -1.2812,-1.34375 -1.2812,-3.6875 0,-2.625 1.7187,-4.03125 1.7344,-1.40625 5.5782,-1.5 l 3.7968,-0.0625 v -0.92188 q 0,-2.0625 -0.875,-2.95312 -0.875,-0.89063 -2.75,-0.89063 -1.8906,0 -2.75,0.64063 -0.8593,0.64062 -1.0312,2.04687 l -2.9375,-0.26562 q 0.7187,-4.5625 6.7812,-4.5625 3.1875,0 4.7969,1.46875 1.6094,1.45312 1.6094,4.21875 V 217.75 q 0,1.25 0.3281,1.89062 0.3281,0.625 1.25,0.625 0.4063,0 0.9219,-0.10937 v 1.75 q -1.0625,0.25 -2.1719,0.25 -1.5625,0 -2.2812,-0.8125 -0.7032,-0.82813 -0.7969,-2.57813 h -0.094 q -1.0781,1.9375 -2.5156,2.75 -1.4219,0.79688 -3.4687,0.79688 z m 0.6406,-2.10938 q 1.5469,0 2.75,-0.70312 1.2031,-0.70313 1.8906,-1.92188 0.7031,-1.23437 0.7031,-2.53125 v -1.39062 l -3.0781,0.0625 q -1.9844,0.0312 -3.0156,0.40625 -1.0156,0.375 -1.5625,1.15625 -0.5469,0.78125 -0.5469,2.04687 0,1.375 0.7344,2.125 0.75,0.75 2.125,0.75 z m 15.5937,-15.10937 v 10.71875 q 0,1.67187 0.3282,2.59375 0.3281,0.92187 1.0468,1.32812 0.7188,0.40625 2.1094,0.40625 2.0313,0 3.2031,-1.39062 1.1719,-1.39063 1.1719,-3.85938 v -9.79687 h 2.8125 v 13.29687 q 0,2.95313 0.094,3.60938 h -2.6563 q -0.016,-0.0781 -0.031,-0.42188 -0.016,-0.34375 -0.047,-0.78125 -0.016,-0.45312 -0.047,-1.6875 h -0.047 q -0.9687,1.75 -2.25,2.48438 -1.2656,0.71875 -3.1562,0.71875 -2.7813,0 -4.0781,-1.375 -1.2813,-1.39063 -1.2813,-4.57813 v -11.26562 z m 21.5469,16.78125 q -1.3906,0.375 -2.8437,0.375 -3.375,0 -3.375,-3.82813 v -11.28125 h -1.9532 v -2.04687 h 2.0625 l 0.8282,-3.78125 h 1.875 v 3.78125 h 3.125 v 2.04687 h -3.125 v 10.67188 q 0,1.21875 0.3906,1.71875 0.4062,0.48437 1.3906,0.48437 0.5625,0 1.625,-0.21875 z m 5.1875,-13.89063 q 0.9063,-1.65625 2.1719,-2.42187 1.2812,-0.78125 3.2344,-0.78125 2.75,0 4.0468,1.375 1.3125,1.35937 1.3125,4.57812 V 222 h -2.8281 v -10.71875 q 0,-1.78125 -0.3281,-2.64063 -0.3281,-0.875 -1.0781,-1.28125 -0.75,-0.40625 -2.0782,-0.40625 -1.9843,0 -3.1875,1.375 -1.1875,1.375 -1.1875,3.70313 V 222 h -2.8125 v -23.1875 h 2.8125 v 6.03125 q 0,0.95312 -0.062,1.96875 -0.047,1.01562 -0.062,1.17187 z m 29.2969,5.54688 q 0,4.4375 -1.9531,6.60937 -1.9532,2.17188 -5.6719,2.17188 -3.7031,0 -5.5938,-2.25 -1.8906,-2.26563 -1.8906,-6.53125 0,-8.75 7.5781,-8.75 3.875,0 5.7032,2.14062 1.8281,2.125 1.8281,6.60938 z m -2.9531,0 q 0,-3.5 -1.0469,-5.07813 -1.0313,-1.59375 -3.4844,-1.59375 -2.4687,0 -3.5781,1.625 -1.0938,1.60938 -1.0938,5.04688 0,3.34375 1.0782,5.03125 1.0937,1.67187 3.4218,1.67187 2.5313,0 3.6094,-1.625 1.0938,-1.625 1.0938,-5.07812 z M 1136.9297,222 v -12.96875 q 0,-1.78125 -0.094,-3.9375 h 2.6563 q 0.125,2.875 0.125,3.45312 h 0.062 q 0.6719,-2.17187 1.5469,-2.96875 0.875,-0.79687 2.4687,-0.79687 0.5625,0 1.1406,0.15625 v 2.57812 q -0.5625,-0.15625 -1.5,-0.15625 -1.75,0 -2.6718,1.51563 -0.9219,1.5 -0.9219,4.3125 V 222 Z"
       id="path5" />
    <path
       d="m 1069.7969,286 -11.7813,-18.75 0.078,1.51562 0.078,2.60938 V 286 h -2.6563 v -22.01563 h 3.4688 l 11.9062,18.875 q -0.1875,-3.0625 -0.1875,-4.4375 v -14.4375 h 2.6875 V 286 Z m 29.5625,-11.10938 q 0,3.45313 -1.3281,6.04688 -1.3125,2.59375 -3.7813,3.98437 -2.4687,1.39063 -5.8281,1.39063 -3.3906,0 -5.8594,-1.375 -2.4531,-1.375 -3.75,-3.96875 -1.2969,-2.60938 -1.2969,-6.07813 0,-5.28125 2.8907,-8.25 2.8906,-2.98437 8.0468,-2.98437 3.3594,0 5.8282,1.34375 2.4687,1.32812 3.7656,3.875 1.3125,2.54687 1.3125,6.01562 z m -3.0469,0 q 0,-4.10937 -2.0625,-6.45312 -2.0469,-2.34375 -5.7969,-2.34375 -3.7812,0 -5.8437,2.3125 -2.0625,2.3125 -2.0625,6.48437 0,4.14063 2.0781,6.57813 2.0938,2.42187 5.7969,2.42187 3.8125,0 5.8437,-2.34375 2.0469,-2.35937 2.0469,-6.65625 z m 16,11.42188 q -2.7031,0 -4.7187,-0.98438 -2.0157,-0.98437 -3.125,-2.85937 -1.1094,-1.875 -1.1094,-4.46875 v -14.01563 h 2.9844 V 277.75 q 0,3.01562 1.5312,4.57812 1.5313,1.5625 4.4219,1.5625 2.9687,0 4.6094,-1.60937 1.6562,-1.625 1.6562,-4.73438 v -13.5625 h 2.9688 v 13.73438 q 0,2.67187 -1.1407,4.60937 -1.125,1.9375 -3.2031,2.96875 -2.0625,1.01563 -4.875,1.01563 z m 28.5938,-0.3125 -11.7813,-18.75 0.078,1.51562 0.078,2.60938 V 286 h -2.6563 v -22.01563 h 3.4688 l 11.9062,18.875 q -0.1875,-3.0625 -0.1875,-4.4375 v -14.4375 H 1144.5 V 286 Z"
       id="path6" />
  </g>
  <g
     id="text16"
     style="font-size:32px;-inkscape-font-specification:'Arial, Normal';text-anchor:middle"
     class="displacy-token"
     aria-label="ofADP">
    <path
       d="m 1278.1094,213.53125 q 0,4.4375 -1.9531,6.60937 -1.9532,2.17188 -5.6719,2.17188 -3.7031,0 -5.5938,-2.25 -1.8906,-2.26563 -1.8906,-6.53125 0,-8.75 7.5781,-8.75 3.875,0 5.7032,2.14062 1.8281,2.125 1.8281,6.60938 z m -2.9531,0 q 0,-3.5 -1.0469,-5.07813 -1.0313,-1.59375 -3.4844,-1.59375 -2.4687,0 -3.5781,1.625 -1.0938,1.60938 -1.0938,5.04688 0,3.34375 1.0782,5.03125 1.0937,1.67187 3.4218,1.67187 2.5313,0 3.6094,-1.625 1.0938,-1.625 1.0938,-5.07812 z m 9.9375,-6.39063 V 222 h -2.8125 v -14.85938 h -2.375 v -2.04687 h 2.375 v -1.90625 q 0,-2.3125 1.0156,-3.32813 1.0156,-1.01562 3.1094,-1.01562 1.1718,0 1.9843,0.1875 v 2.14062 q -0.7031,-0.125 -1.25,-0.125 -1.0781,0 -1.5625,0.54688 -0.4843,0.54687 -0.4843,1.98437 v 1.51563 h 3.2968 v 2.04687 z"
       id="path3" />
    <path
       d="m 1260.3359,286 -2.5156,-6.4375 h -10.0312 L 1245.2578,286 h -3.0937 l 8.9843,-22.01563 h 3.3907 L 1263.3828,286 Z m -7.5312,-19.76563 -0.1406,0.4375 q -0.3907,1.29688 -1.1563,3.32813 l -2.8125,7.23437 h 8.2344 l -2.8281,-7.26562 q -0.4375,-1.07813 -0.875,-2.4375 z m 32.2187,8.53125 q 0,3.40625 -1.3281,5.96875 -1.3281,2.54688 -3.7656,3.90625 Q 1277.4922,286 1274.3047,286 h -8.2344 v -22.01563 h 7.2813 q 5.5937,0 8.625,2.8125 3.0468,2.79688 3.0468,7.96875 z m -3,0 q 0,-4.09375 -2.25,-6.23437 -2.2343,-2.15625 -6.4843,-2.15625 h -4.2344 v 17.23437 h 4.9062 q 2.4219,0 4.25,-1.0625 1.8438,-1.0625 2.8282,-3.0625 0.9843,-2 0.9843,-4.71875 z m 24.1875,-4.15625 q 0,3.125 -2.0468,4.96875 -2.0313,1.84375 -5.5313,1.84375 h -6.4687 V 286 h -2.9844 v -22.01563 h 9.2656 q 3.7031,0 5.7344,1.73438 2.0312,1.73437 2.0312,4.89062 z m -3,0.0312 q 0,-4.26562 -5.125,-4.26562 h -5.9218 v 8.6875 h 6.0468 q 5,0 5,-4.42188 z"
       id="path4" />
  </g>
  <g
     id="text18"
     style="font-size:32px;-inkscape-font-specification:'Arial, Normal';text-anchor:middle"
     class="displacy-token"
     aria-label="PaperX?PROPN">
    <path
       d="m 1407.3906,206.60937 q 0,3.125 -2.0468,4.96875 -2.0313,1.84375 -5.5313,1.84375 h -6.4687 V 222 h -2.9844 v -22.01563 h 9.2656 q 3.7031,0 5.7344,1.73438 2.0312,1.73437 2.0312,4.89062 z m -3,0.0312 q 0,-4.26562 -5.125,-4.26562 h -5.9218 v 8.6875 h 6.0468 q 5,0 5,-4.42188 z m 11.1563,15.67188 q -2.5469,0 -3.8281,-1.34375 -1.2813,-1.34375 -1.2813,-3.6875 0,-2.625 1.7188,-4.03125 1.7343,-1.40625 5.5781,-1.5 l 3.7969,-0.0625 v -0.92188 q 0,-2.0625 -0.875,-2.95312 -0.875,-0.89063 -2.75,-0.89063 -1.8907,0 -2.75,0.64063 -0.8594,0.64062 -1.0313,2.04687 l -2.9375,-0.26562 q 0.7188,-4.5625 6.7813,-4.5625 3.1875,0 4.7968,1.46875 1.6094,1.45312 1.6094,4.21875 V 217.75 q 0,1.25 0.3281,1.89062 0.3282,0.625 1.25,0.625 0.4063,0 0.9219,-0.10937 v 1.75 q -1.0625,0.25 -2.1719,0.25 -1.5625,0 -2.2812,-0.8125 -0.7031,-0.82813 -0.7969,-2.57813 h -0.094 q -1.0782,1.9375 -2.5157,2.75 -1.4218,0.79688 -3.4687,0.79688 z m 0.6406,-2.10938 q 1.5469,0 2.75,-0.70312 1.2031,-0.70313 1.8906,-1.92188 0.7032,-1.23437 0.7032,-2.53125 v -1.39062 l -3.0782,0.0625 q -1.9843,0.0312 -3.0156,0.40625 -1.0156,0.375 -1.5625,1.15625 -0.5469,0.78125 -0.5469,2.04687 0,1.375 0.7344,2.125 0.75,0.75 2.125,0.75 z m 27.1406,-6.73437 q 0,8.84375 -6.2187,8.84375 -3.9063,0 -5.25,-2.9375 h -0.078 q 0.062,0.125 0.062,2.65625 v 6.60937 h -2.8125 v -20.09375 q 0,-2.60937 -0.094,-3.45312 h 2.7188 q 0.016,0.0625 0.047,0.45312 0.031,0.375 0.062,1.17188 0.047,0.79687 0.047,1.09375 h 0.062 q 0.75,-1.5625 1.9844,-2.28125 1.2344,-0.73438 3.25,-0.73438 3.125,0 4.6719,2.09375 1.5468,2.09375 1.5468,6.57813 z m -2.9531,0.0625 q 0,-3.53125 -0.9531,-5.04688 -0.9531,-1.51562 -3.0313,-1.51562 -1.6718,0 -2.625,0.70312 -0.9375,0.70313 -1.4375,2.20313 -0.4843,1.48437 -0.4843,3.875 0,3.32812 1.0625,4.90625 1.0625,1.57812 3.4531,1.57812 2.0937,0 3.0469,-1.53125 0.9687,-1.54687 0.9687,-5.17187 z m 8.6094,0.60937 q 0,2.90625 1.2031,4.48438 1.2031,1.57812 3.5156,1.57812 1.8282,0 2.9219,-0.73437 1.1094,-0.73438 1.5,-1.85938 l 2.4688,0.70313 q -1.5157,4 -6.8907,4 -3.75,0 -5.7187,-2.23438 -1.9531,-2.23437 -1.9531,-6.64062 0,-4.1875 1.9531,-6.42188 1.9687,-2.23437 5.6094,-2.23437 7.4531,0 7.4531,8.98437 v 0.375 z m 9.1562,-2.15625 q -0.2343,-2.67187 -1.3593,-3.89062 -1.125,-1.23438 -3.2344,-1.23438 -2.0469,0 -3.25,1.375 -1.1875,1.35938 -1.2813,3.75 z M 1464.6875,222 v -12.96875 q 0,-1.78125 -0.094,-3.9375 h 2.6562 q 0.125,2.875 0.125,3.45312 h 0.062 q 0.6719,-2.17187 1.5469,-2.96875 0.875,-0.79687 2.4687,-0.79687 0.5625,0 1.1407,0.15625 v 2.57812 q -0.5625,-0.15625 -1.5,-0.15625 -1.75,0 -2.6719,1.51563 -0.9219,1.5 -0.9219,4.3125 V 222 Z m 25.8125,0 -6.6094,-9.625 -6.75,9.625 h -3.2968 l 8.375,-11.4375 -7.7344,-10.57813 h 3.2969 l 6.125,8.64063 5.9531,-8.64063 h 3.2969 l -7.5313,10.46875 8.1719,11.54688 z m 20.5781,-16.125 q 0,1.17187 -0.3437,2.09375 -0.3438,0.92187 -0.9844,1.70312 -0.6406,0.78125 -2.0937,1.84375 l -1.25,0.92188 q -1.125,0.8125 -1.6719,1.71875 -0.5469,0.89062 -0.5625,1.95312 h -2.7344 q 0.031,-1.07812 0.3281,-1.89062 0.3125,-0.8125 0.7969,-1.4375 0.4844,-0.625 1.0938,-1.10938 0.6093,-0.5 1.2343,-0.9375 0.625,-0.45312 1.2188,-0.89062 0.6094,-0.45313 1.0781,-1 0.4688,-0.54688 0.75,-1.23438 0.2969,-0.6875 0.2969,-1.60937 0,-1.78125 -1.2188,-2.8125 -1.2031,-1.03125 -3.3906,-1.03125 -2.1875,0 -3.4687,1.09375 -1.2813,1.09375 -1.5,3 l -2.875,-0.1875 q 0.4062,-3.09375 2.4375,-4.75 2.0312,-1.65625 5.375,-1.65625 3.4843,0 5.4843,1.65625 2,1.64062 2,4.5625 z M 1501.3125,222 v -3.14063 h 3.0469 V 222 Z"
       id="path1" />
    <path
       d="m 1412.7578,270.60937 q 0,3.125 -2.0469,4.96875 -2.0312,1.84375 -5.5312,1.84375 h -6.4688 V 286 h -2.9843 v -22.01563 h 9.2656 q 3.7031,0 5.7344,1.73438 2.0312,1.73437 2.0312,4.89062 z m -3,0.0312 q 0,-4.26562 -5.125,-4.26562 h -5.9219 v 8.6875 h 6.0469 q 5,0 5,-4.42188 z m 22.875,15.35938 -5.7187,-9.14063 h -6.8594 V 286 h -2.9844 v -22.01563 h 10.3594 q 3.7187,0 5.7344,1.67188 2.0312,1.65625 2.0312,4.625 0,2.45312 -1.4375,4.125 -1.4219,1.67187 -3.9375,2.10937 l 6.25,9.48438 z m -0.4375,-15.6875 q 0,-1.92188 -1.3125,-2.92188 -1.2969,-1.01562 -3.75,-1.01562 h -7.0781 v 8.125 h 7.2031 q 2.3594,0 3.6406,-1.09375 1.2969,-1.10938 1.2969,-3.09375 z m 28.7188,4.57812 q 0,3.45313 -1.3282,6.04688 -1.3125,2.59375 -3.7812,3.98437 -2.4688,1.39063 -5.8281,1.39063 -3.3907,0 -5.8594,-1.375 -2.4531,-1.375 -3.75,-3.96875 -1.2969,-2.60938 -1.2969,-6.07813 0,-5.28125 2.8906,-8.25 2.8907,-2.98437 8.0469,-2.98437 3.3594,0 5.8281,1.34375 2.4688,1.32812 3.7657,3.875 1.3125,2.54687 1.3125,6.01562 z m -3.0469,0 q 0,-4.10937 -2.0625,-6.45312 -2.0469,-2.34375 -5.7969,-2.34375 -3.7812,0 -5.8437,2.3125 -2.0625,2.3125 -2.0625,6.48437 0,4.14063 2.0781,6.57813 2.0937,2.42187 5.7969,2.42187 3.8125,0 5.8437,-2.34375 2.0469,-2.35937 2.0469,-6.65625 z m 24.2344,-4.28125 q 0,3.125 -2.0469,4.96875 -2.0313,1.84375 -5.5313,1.84375 h -6.4687 V 286 h -2.9844 v -22.01563 h 9.2656 q 3.7032,0 5.7344,1.73438 2.0313,1.73437 2.0313,4.89062 z m -3,0.0312 q 0,-4.26562 -5.125,-4.26562 h -5.9219 v 8.6875 h 6.0469 q 5,0 5,-4.42188 z M 1500.6953,286 l -11.7812,-18.75 0.078,1.51562 0.078,2.60938 V 286 h -2.6562 v -22.01563 h 3.4687 l 11.9063,18.875 q -0.1875,-3.0625 -0.1875,-4.4375 v -14.4375 h 2.6875 V 286 Z"
       id="path2" />
  </g>
  <g
     class="displacy-arrow"
     id="g19">
    <path
       class="displacy-arc"
       id="arrow-bd1ee6007a6b433bbcfe4df49c9c2f8e-0-0"
       stroke-width="2px"
       d="M70,177.0 C70,89.5 220.0,89.5 220.0,177.0"
       fill="none"
       stroke="currentColor" />
    <path
       style="font-size:24px;-inkscape-font-specification:'Arial, Normal';letter-spacing:1px;text-anchor:middle"
       d="m 128.3378,141.35953 q -0.19027,1.33883 -0.95811,2.13544 -0.75666,0.79306 -2.11952,1.22508 -2.29004,0.72592 -3.86229,-0.47218 -1.56108,-1.20164 -2.55259,-4.3295 -2.00427,-6.32274 2.44176,-7.7321 1.37402,-0.43556 2.44939,-0.22324 1.07536,0.21232 1.98094,1.13002 l 0.0223,-0.007 -0.45081,-1.3446 -1.58996,-5.01574 2.01076,-0.6374 4.46534,14.08654 q 0.59845,1.88788 0.8567,2.46987 l -1.9214,0.60907 q -0.0902,-0.16811 -0.34024,-0.80186 -0.2389,-0.63729 -0.38762,-1.10647 z m -7.40245,-2.17745 q 0.80383,2.5358 1.82111,3.41808 1.01729,0.88229 2.52536,0.40424 1.70916,-0.54179 2.10459,-1.97025 0.39544,-1.42845 -0.39423,-3.91957 -0.76134,-2.40175 -1.88624,-3.27451 -1.12491,-0.87275 -2.81172,-0.33804 -1.51925,0.48159 -1.84302,1.82586 -0.31614,1.32956 0.48415,3.85419 z m 12.74002,3.38778 q -1.88956,0.27977 -2.98774,-0.57643 -1.09819,-0.8562 -1.35565,-2.59505 -0.28835,-1.94752 0.83233,-3.17964 1.13228,-1.23383 3.9737,-1.72562 l 2.81008,-0.46346 -0.10126,-0.68395 q -0.22657,-1.53019 -0.97358,-2.09484 -0.747,-0.56464 -2.13809,-0.35867 -1.40267,0.20768 -1.96988,0.77737 -0.56721,0.56969 -0.54025,1.63188 l -2.20855,0.12561 q 0.0321,-3.46392 4.5299,-4.12989 2.36485,-0.35014 3.7202,0.56275 1.35364,0.90131 1.65745,2.95315 l 0.79984,5.40205 q 0.13731,0.92739 0.45112,1.36663 0.3121,0.42765 0.99605,0.32639 0.3014,-0.0446 0.67193,-0.18242 l 0.19224,1.29835 q -0.76082,0.30219 -1.58388,0.42405 -1.15923,0.17164 -1.78174,-0.3522 -0.61262,-0.53716 -0.87441,-1.82521 l -0.0696,0.0103 q -0.58704,1.55588 -1.56428,2.3166 -0.96737,0.7474 -2.48597,0.97225 z m 0.24357,-1.63534 q 1.14764,-0.16993 1.96302,-0.82375 0.81537,-0.65382 1.19156,-1.63354 0.38606,-0.99304 0.2436,-1.95521 l -0.15276,-1.03172 -2.27683,0.3845 q -1.4688,0.24117 -2.1927,0.63267 -0.71231,0.38978 -1.03223,1.02948 -0.31991,0.63969 -0.18088,1.57867 0.15104,1.02013 0.77827,1.49589 0.63882,0.47405 1.65895,0.32301 z m 12.17482,0.28064 q -1.03373,0.31351 -2.12304,0.34736 -2.53003,0.0786 -2.6192,-2.7911 l -0.26278,-8.45685 -1.46413,0.0455 -0.0477,-1.53442 1.54613,-0.048 0.53271,-2.85386 1.40558,-0.0437 0.0881,2.83457 2.34262,-0.0728 0.0477,1.53441 -2.34262,0.0728 0.24858,8.00005 q 0.0284,0.91362 0.33286,1.27934 0.31583,0.35364 1.05375,0.33072 0.42167,-0.0131 1.21307,-0.20184 z m 1.2449,-15.18864 0.0838,-2.01388 2.10755,0.0878 -0.0838,2.01388 z m -0.63961,15.36169 0.52748,-12.66871 2.10755,0.0877 -0.52748,12.66872 z m 8.81154,0.82043 -2.47046,-0.35682 -2.74562,-13.20781 2.2269,0.32163 1.58108,8.56397 q 0.0838,0.48571 0.40327,2.86441 l 0.60194,-1.29838 0.65001,-1.30328 4.03589,-7.77638 2.2153,0.31996 z m 6.14871,-4.84738 q -0.63438,2.08533 -0.11558,3.48031 0.51881,1.39497 2.1781,1.89975 1.31174,0.39904 2.25684,0.11085 0.95632,-0.28478 1.48217,-1.00674 l 1.61793,1.0434 q -1.96064,2.5393 -5.81737,1.36603 -2.69075,-0.81855 -3.61567,-2.85153 -0.91371,-2.02957 0.0481,-5.1912 0.91405,-3.00467 2.80321,-4.18157 1.90036,-1.1735 4.51263,-0.37882 5.34786,1.62688 3.38674,8.07346 l -0.0819,0.26908 z m 7.04057,0.45146 q 0.41505,-1.96832 -0.12614,-3.08838 -0.53778,-1.13127 -2.05133,-1.59171 -1.4687,-0.44679 -2.63212,0.2772 -1.14879,0.71618 -1.73789,2.41107 z"
       id="text19"
       aria-label="dative" />
    <path
       class="displacy-arrowhead"
       d="M220.0,179.0 L228.0,167.0 212.0,167.0"
       fill="currentColor"
       id="path19" />
  </g>
  <g
     class="displacy-arrow"
     id="g20">
    <path
       class="displacy-arc"
       id="arrow-bd1ee6007a6b433bbcfe4df49c9c2f8e-0-1"
       stroke-width="2px"
       d="M420,177.0 C420,89.5 570.0,89.5 570.0,177.0"
       fill="none"
       stroke="currentColor" />
    <path
       style="font-size:24px;-inkscape-font-specification:'Arial, Normal';letter-spacing:1px;text-anchor:middle"
       d="m 489.80487,139.46752 q -0.43527,1.28032 -1.33752,1.9207 -0.89062,0.63898 -2.30996,0.81074 -2.38494,0.28863 -3.70772,-1.18028 -1.31114,-1.47031 -1.70536,-4.72779 -0.79689,-6.58477 3.83339,-7.14513 1.43097,-0.17317 2.4483,0.2349 1.01734,0.40808 1.73701,1.4778 l 0.0233,-0.003 -0.19362,-1.40488 -0.63216,-5.2236 2.09409,-0.25343 1.7754,14.67031 q 0.23794,1.96612 0.38377,2.5859 l -2.00103,0.24216 q -0.0574,-0.18191 -0.18562,-0.85105 -0.11656,-0.67054 -0.1757,-1.15916 z m -6.87021,-3.51253 q 0.3196,2.64088 1.15561,3.69653 0.83601,1.05564 2.40658,0.86557 1.77998,-0.21541 2.43348,-1.54575 0.6535,-1.33034 0.33953,-3.92469 -0.30271,-2.50128 -1.24624,-3.56752 -0.94352,-1.06624 -2.70024,-0.85364 -1.5822,0.19148 -2.14967,1.45238 -0.55724,1.24786 -0.23905,3.87712 z m 10.75509,-0.54476 q -0.0644,2.17874 0.80265,3.38846 0.867,1.20972 2.60062,1.26093 1.3705,0.0405 2.20671,-0.48584 0.84793,-0.52597 1.16569,-1.3607 l 1.83518,0.58178 q -1.2248,2.96513 -5.25429,2.8461 -2.81127,-0.083 -4.23771,-1.80169 -1.41473,-1.7183 -1.31716,-5.02155 0.0927,-3.13925 1.60642,-4.77105 1.5254,-1.63146 4.25468,-1.55084 5.5874,0.16505 5.38845,6.90039 l -0.008,0.28113 z m 6.91194,-1.41372 q -0.11653,-2.00822 -0.93293,-2.9468 -0.81604,-0.95029 -2.39738,-0.997 -1.53449,-0.0453 -2.46689,0.95883 -0.92034,0.99279 -1.04356,2.7829 z m 6.99835,8.4246 q -1.07267,0.12748 -2.15106,-0.0301 -2.50465,-0.36603 -2.08947,-3.20695 l 1.22349,-8.37201 -1.44945,-0.21182 0.22199,-1.51902 1.53062,0.22368 1.02466,-2.71631 1.39147,0.20335 -0.41009,2.80613 2.31911,0.33892 -0.22199,1.51902 -2.31911,-0.33892 -1.15741,7.91978 q -0.13218,0.90445 0.10349,1.31788 0.24895,0.40352 0.97947,0.51028 0.41744,0.061 1.22966,0.0139 z"
       id="text20"
       aria-label="det" />
    <path
       class="displacy-arrowhead"
       d="M420,179.0 L412,167.0 428,167.0"
       fill="currentColor"
       id="path20" />
  </g>
  <g
     class="displacy-arrow"
     id="g21">
    <path
       class="displacy-arc"
       id="arrow-bd1ee6007a6b433bbcfe4df49c9c2f8e-0-2"
       stroke-width="2px"
       d="M70,177.0 C70,2.0 575.0,2.0 575.0,177.0"
       fill="none"
       stroke="currentColor" />
    <path
       style="font-size:24px;-inkscape-font-specification:'Arial, Normal';letter-spacing:1px;text-anchor:middle"
       d="m 308.35927,73.89549 q -0.54534,1.23745 -1.50004,1.796652 -0.94298,0.558815 -2.37189,0.606067 -2.40103,0.0794 -3.59057,-1.499337 -1.17784,-1.579123 -1.28628,-4.85858 -0.21922,-6.629189 4.44229,-6.783338 1.44062,-0.04764 2.41846,0.447658 0.97785,0.495296 1.60142,1.623741 l 0.0234,-7.75e-4 -0.0703,-1.416419 -0.1739,-5.258845 2.10823,-0.06972 0.48839,14.769271 q 0.0655,1.979386 0.15665,2.609529 l -2.01453,0.06662 q -0.0413,-0.186235 -0.11065,-0.864002 -0.0576,-0.678154 -0.0739,-1.170073 z m -6.53747,-4.098673 q 0.0879,2.658703 0.82861,3.783274 0.7407,1.124572 2.32187,1.072285 1.79199,-0.05926 2.55908,-1.327491 0.7671,-1.268233 0.68073,-3.880087 -0.0833,-2.518155 -0.93015,-3.662665 -0.84689,-1.144511 -2.61545,-1.086027 -1.59288,0.05267 -2.26822,1.259247 -0.66401,1.194473 -0.57647,3.841464 z m 22.83677,-0.424643 q 0.0223,3.32805 -1.43154,4.966751 -1.45388,1.638701 -4.24288,1.65742 -2.77728,0.01864 -4.20654,-1.659306 -1.42934,-1.689664 -1.45081,-4.888811 -0.044,-6.562352 5.63942,-6.600497 2.90618,-0.01951 4.28802,1.576726 1.38176,1.584512 1.40433,4.947717 z m -2.21479,0.01487 q -0.0176,-2.624941 -0.8107,-3.803238 -0.78144,-1.190095 -2.62125,-1.177747 -1.85152,0.01243 -2.67535,1.236733 -0.81219,1.21251 -0.79489,3.790577 0.0168,2.507756 0.8339,3.767925 0.82871,1.248373 2.57476,1.236654 1.8984,-0.01274 2.69879,-1.23689 0.81212,-1.224228 0.79474,-3.814014 z m 15.94039,0.175318 q -0.1298,6.631542 -4.79297,6.540272 -1.44113,-0.02821 -2.39179,-0.562537 -0.93872,-0.545817 -1.51356,-1.717447 l -0.0234,-4.59e-4 q -0.007,0.363212 -0.0686,1.112151 -0.0613,0.737223 -0.087,0.853929 l -2.03867,-0.0399 q 0.0827,-0.631315 0.12143,-2.611405 l 0.28918,-14.774514 2.10897,0.04128 -0.097,4.956082 q -0.0149,0.761573 -0.082,1.791708 l 0.0469,9.18e-4 q 0.60968,-1.207051 1.58075,-1.715489 0.98279,-0.50821 2.4122,-0.480232 2.40189,0.04701 3.49502,1.685903 1.10486,1.639122 1.04065,4.919744 z m -2.2158,0.02696 q 0.0521,-2.659647 -0.62846,-3.821624 -0.68051,-1.161976 -2.26224,-1.192935 -1.78091,-0.03486 -2.62492,1.167608 -0.83229,1.202693 -0.88411,3.850623 -0.0489,2.495616 0.72448,3.706294 0.77357,1.198961 2.56619,1.234047 1.59345,0.03119 2.31937,-1.126704 0.73787,-1.169378 0.78969,-3.817309 z m 5.72389,-8.861183 0.0778,-2.014124 2.10781,0.0814 -0.0778,2.014124 z m 1.45389,17.014091 q -0.0692,1.791633 -0.80299,2.572491 -0.73381,0.780858 -2.13901,0.726591 -0.90167,-0.03482 -1.4831,-0.162822 l 0.0629,-1.627693 0.72331,0.0983 q 0.80799,0.0312 1.15215,-0.377695 0.34417,-0.408899 0.3912,-1.626741 l 0.53769,-13.923215 2.1078,0.0814 z"
       id="text21"
       aria-label="dobj" />
    <path
       class="displacy-arrowhead"
       d="M575.0,179.0 L583.0,167.0 567.0,167.0"
       fill="currentColor"
       id="path21" />
  </g>
  <g
     class="displacy-arrow"
     id="g22">
    <path
       class="displacy-arc"
       id="arrow-bd1ee6007a6b433bbcfe4df49c9c2f8e-0-3"
       stroke-width="2px"
       d="M595,177.0 C595,89.5 745.0,89.5 745.0,177.0"
       fill="none"
       stroke="currentColor" />
    <path
       style="font-size:24px;-inkscape-font-specification:'Arial, Normal';letter-spacing:1px;text-anchor:middle"
       d="m 661.13975,135.28158 q 1.34998,6.49398 -3.21646,7.44326 -2.86836,0.59628 -4.30348,-1.3556 l -0.0574,0.0119 q 0.065,0.0823 0.45136,1.94095 l 1.00891,4.85327 -2.06522,0.42932 -3.06727,-14.75486 q -0.39832,-1.91607 -0.59596,-2.52133 l 1.99638,-0.41501 q 0.021,0.0435 0.10359,0.32558 0.0802,0.27059 0.22478,0.85096 0.15606,0.578 0.20138,0.79599 l 0.0459,-0.01 q 0.31222,-1.26183 1.1089,-1.97804 0.79431,-0.72767 2.27438,-1.03536 2.29469,-0.47702 3.75017,0.82429 1.45548,1.30132 2.14002,4.5942 z m -2.15895,0.49669 q -0.53904,-2.59301 -1.47028,-3.56044 -0.93123,-0.96743 -2.4572,-0.65021 -1.22766,0.25521 -1.82021,0.91701 -0.58108,0.65941 -0.71926,1.83719 -0.12909,1.16392 0.23584,2.91936 0.50803,2.44384 1.52912,3.44047 1.02109,0.99663 2.77653,0.63171 1.53745,-0.31961 2.00359,-1.5895 0.47522,-1.28375 -0.0781,-3.94559 z m 3.42295,5.9928 -0.77622,-9.69554 q -0.10661,-1.33168 -0.30575,-2.93809 l 1.98583,-0.15899 q 0.26553,2.14189 0.30013,2.5741 l 0.0467,-0.004 q 0.37231,-1.66392 0.97877,-2.31204 0.60646,-0.64812 1.79796,-0.74351 0.42053,-0.0337 0.8621,0.0485 l 0.15431,1.92743 q -0.42989,-0.0832 -1.13077,-0.027 -1.30831,0.10474 -1.9068,1.29301 -0.59942,1.17659 -0.43109,3.27924 l 0.52746,6.5883 z m 7.15294,-6.37154 q -0.0906,2.17781 0.76179,3.39788 0.85238,1.22007 2.58525,1.29215 1.36991,0.057 2.2124,-0.45923 0.85421,-0.51573 1.18199,-1.34658 l 1.82804,0.60384 q -1.26041,2.95017 -5.28818,2.78263 -2.81007,-0.11688 -4.21571,-1.85258 -1.39393,-1.73521 -1.2566,-5.03704 0.13052,-3.13791 1.66375,-4.75137 1.54493,-1.61297 4.27304,-1.49949 5.58501,0.2323 5.30498,6.96476 l -0.0117,0.28101 z m 6.92846,-1.3304 q -0.0924,-2.00948 -0.89738,-2.95781 -0.80455,-0.96005 -2.38521,-1.0258 -1.53383,-0.0638 -2.47825,0.92906 -0.93223,0.98164 -1.077,2.77014 z m 12.75576,3.31156 q -1.27867,6.50839 -5.85524,5.60926 -2.87474,-0.56478 -3.43893,-2.92087 l -0.0575,-0.0113 q 0.0279,0.10103 -0.33806,1.96385 l -0.95561,4.86405 -2.06981,-0.40664 2.90524,-14.78763 q 0.37727,-1.92032 0.43027,-2.55482 l 2.00082,0.39309 q 0.002,0.0483 -0.031,0.34025 -0.0312,0.28049 -0.12344,0.87145 -0.0807,0.59323 -0.12364,0.81171 l 0.046,0.009 q 0.77786,-1.04145 1.79019,-1.39193 1.0146,-0.36198 2.49796,-0.0705 2.29979,0.45182 3.13546,2.21633 0.83567,1.76452 0.1873,5.06471 z m -2.18234,-0.38098 q 0.51057,-2.59876 0.0283,-3.85196 -0.4823,-1.25321 -2.01166,-1.55367 -1.23039,-0.24173 -2.03348,0.13792 -0.7916,0.3819 -1.37644,1.41351 -0.57109,1.02236 -0.91673,2.7817 -0.4812,2.44927 0.0726,3.76429 0.55375,1.31501 2.31309,1.66065 1.54086,0.30273 2.46369,-0.68636 0.93659,-0.99833 1.4607,-3.66608 z"
       id="text22"
       aria-label="prep" />
    <path
       class="displacy-arrowhead"
       d="M745.0,179.0 L753.0,167.0 737.0,167.0"
       fill="currentColor"
       id="path22" />
  </g>
  <g
     class="displacy-arrow"
     id="g23">
    <path
       class="displacy-arc"
       id="arrow-bd1ee6007a6b433bbcfe4df49c9c2f8e-0-4"
       stroke-width="2px"
       d="M945,177.0 C945,89.5 1095.0,89.5 1095.0,177.0"
       fill="none"
       stroke="currentColor" />
    <path
       style="font-size:24px;-inkscape-font-specification:'Arial, Normal';letter-spacing:1px;text-anchor:middle"
       d="m 1014.8049,139.46752 q -0.4353,1.28032 -1.3375,1.9207 -0.8906,0.63898 -2.31,0.81074 -2.3849,0.28863 -3.7077,-1.18028 -1.3111,-1.47031 -1.7054,-4.72779 -0.7968,-6.58477 3.8334,-7.14513 1.431,-0.17317 2.4483,0.2349 1.0174,0.40808 1.737,1.4778 l 0.023,-0.003 -0.1936,-1.40488 -0.6322,-5.2236 2.0941,-0.25343 1.7754,14.67031 q 0.2379,1.96612 0.3838,2.5859 l -2.001,0.24216 q -0.058,-0.18191 -0.1857,-0.85105 -0.1165,-0.67054 -0.1757,-1.15916 z m -6.8702,-3.51253 q 0.3196,2.64088 1.1556,3.69653 0.836,1.05564 2.4066,0.86557 1.78,-0.21541 2.4335,-1.54575 0.6535,-1.33034 0.3395,-3.92469 -0.3027,-2.50128 -1.2462,-3.56752 -0.9436,-1.06624 -2.7003,-0.85364 -1.5822,0.19148 -2.1497,1.45238 -0.5572,1.24786 -0.239,3.87712 z m 10.755,-0.54476 q -0.064,2.17874 0.8027,3.38846 0.867,1.20972 2.6006,1.26093 1.3705,0.0405 2.2067,-0.48584 0.8479,-0.52597 1.1657,-1.3607 l 1.8352,0.58178 q -1.2248,2.96513 -5.2543,2.8461 -2.8113,-0.083 -4.2377,-1.80169 -1.4148,-1.7183 -1.3172,-5.02155 0.093,-3.13925 1.6064,-4.77105 1.5254,-1.63146 4.2547,-1.55084 5.5874,0.16505 5.3885,6.90039 l -0.01,0.28113 z m 6.912,-1.41372 q -0.1166,-2.00822 -0.933,-2.9468 -0.816,-0.95029 -2.3974,-0.997 -1.5344,-0.0453 -2.4668,0.95883 -0.9204,0.99279 -1.0436,2.7829 z m 6.9984,8.4246 q -1.0727,0.12748 -2.1511,-0.0301 -2.5046,-0.36603 -2.0894,-3.20695 l 1.2235,-8.37201 -1.4495,-0.21182 0.222,-1.51902 1.5306,0.22368 1.0247,-2.71631 1.3914,0.20335 -0.41,2.80613 2.3191,0.33892 -0.222,1.51902 -2.3191,-0.33892 -1.1574,7.91978 q -0.1322,0.90445 0.1034,1.31788 0.249,0.40352 0.9795,0.51028 0.4175,0.061 1.2297,0.0139 z"
       id="text23"
       aria-label="det" />
    <path
       class="displacy-arrowhead"
       d="M945,179.0 L937,167.0 953,167.0"
       fill="currentColor"
       id="path23" />
  </g>
  <g
     class="displacy-arrow"
     id="g24">
    <path
       class="displacy-arc"
       id="arrow-bd1ee6007a6b433bbcfe4df49c9c2f8e-0-5"
       stroke-width="2px"
       d="M770,177.0 C770,2.0 1100.0,2.0 1100.0,177.0"
       fill="none"
       stroke="currentColor" />
    <path
       style="font-size:24px;-inkscape-font-specification:'Arial, Normal';letter-spacing:1px;text-anchor:middle"
       d="m 924.48171,69.537997 q 0.51388,6.612876 -4.13616,6.974229 -2.92088,0.226981 -4.09635,-1.891441 l -0.0584,0.0045 q 0.054,0.08984 0.20108,1.982568 l 0.38405,4.942131 -2.10303,0.163426 -1.16759,-15.025014 q -0.15163,-1.951149 -0.27075,-2.576612 l 2.03293,-0.157978 q 0.0153,0.04583 0.0614,0.336098 0.0452,0.278589 0.11483,0.872633 0.0814,0.593136 0.0986,0.815123 l 0.0467,-0.0036 q 0.47001,-1.211933 1.35125,-1.821101 0.88032,-0.620851 2.3875,-0.737973 2.3367,-0.181585 3.61503,1.294123 1.27834,1.475708 1.53891,4.82888 z m -2.20456,0.218332 q -0.20519,-2.640477 -1.00595,-3.718396 -0.80076,-1.077919 -2.35467,-0.957165 -1.25014,0.09715 -1.92198,0.67829 -0.66015,0.580234 -0.94687,1.730906 -0.27593,1.138081 -0.13702,2.92566 0.19339,2.488591 1.07957,3.606888 0.88618,1.118298 2.67376,0.979385 1.56559,-0.121661 2.18931,-1.32203 0.63449,-1.21296 0.42385,-3.923538 z m 15.09407,-0.421087 q 0.0523,3.327714 -1.38674,4.979447 -1.43905,1.651734 -4.22777,1.69558 -2.777,0.04366 -4.22132,-1.621337 -1.44451,-1.676717 -1.4948,-4.875541 -0.10317,-6.561689 5.57972,-6.65104 2.90589,-0.04569 4.30206,1.538027 1.39597,1.571998 1.44885,4.934864 z m -2.21457,0.03482 q -0.0413,-2.624675 -0.84494,-3.795779 -0.79213,-1.183006 -2.63174,-1.154082 -1.85134,0.02911 -2.66411,1.260788 -0.80123,1.219778 -0.7607,3.797584 0.0394,2.507503 0.86781,3.760259 0.83993,1.240856 2.5858,1.213406 1.89821,-0.02984 2.68754,-1.261157 0.80105,-1.231495 0.76034,-3.821019 z m 15.09932,0.461071 q -0.30411,6.625837 -4.96326,6.411993 -1.4399,-0.06609 -2.37618,-0.625229 -0.92404,-0.57031 -1.46788,-1.756649 l -0.0234,-0.0011 q -0.0167,0.362899 -0.0979,1.109961 -0.0807,0.735356 -0.10946,0.851345 l -2.03692,-0.09349 q 0.0993,-0.628924 0.19006,-2.60731 l 0.67753,-14.761803 2.10716,0.09671 -0.22728,4.951818 q -0.0349,0.760918 -0.12903,1.788934 l 0.0468,0.0021 q 0.6412,-1.190603 1.62531,-1.673334 0.99581,-0.482194 2.42399,-0.416643 2.39982,0.110146 3.44949,1.777213 1.06138,1.667605 0.91093,4.945404 z m -2.21573,-0.03131 q 0.12196,-2.657358 -0.52777,-3.836826 -0.64973,-1.179467 -2.2301,-1.252003 -1.77937,-0.08167 -2.6547,1.098189 -0.86362,1.180394 -0.98505,3.826047 -0.11445,2.493468 0.62678,3.72406 0.74177,1.218885 2.53286,1.301092 1.59207,0.07307 2.34819,-1.065332 0.76836,-1.149574 0.88979,-3.795227 z m 5.57341,-8.631904 0.18236,-2.007359 2.10072,0.190836 -0.18235,2.007359 z m 0.56767,17.066658 q -0.16221,1.785616 -0.93561,2.527282 -0.77339,0.741665 -2.17387,0.614441 -0.89865,-0.08164 -1.47264,-0.239682 l 0.14737,-1.622227 0.71722,0.135757 q 0.80528,0.07315 1.17022,-0.317305 0.36495,-0.390459 0.47521,-1.604211 l 1.26058,-13.876454 2.10073,0.190837 z"
       id="text24"
       aria-label="pobj" />
    <path
       class="displacy-arrowhead"
       d="M1100.0,179.0 L1108.0,167.0 1092.0,167.0"
       fill="currentColor"
       id="path24" />
  </g>
  <g
     class="displacy-arrow"
     id="g25">
    <path
       class="displacy-arc"
       id="arrow-bd1ee6007a6b433bbcfe4df49c9c2f8e-0-6"
       stroke-width="2px"
       d="M1120,177.0 C1120,89.5 1270.0,89.5 1270.0,177.0"
       fill="none"
       stroke="currentColor" />
    <path
       style="font-size:24px;-inkscape-font-specification:'Arial, Normal';letter-spacing:1px;text-anchor:middle"
       d="m 1186.1397,135.28158 q 1.35,6.49398 -3.2164,7.44326 -2.8684,0.59628 -4.3035,-1.3556 l -0.057,0.0119 q 0.065,0.0823 0.4514,1.94095 l 1.0089,4.85327 -2.0652,0.42932 -3.0673,-14.75486 q -0.3983,-1.91607 -0.5959,-2.52133 l 1.9963,-0.41501 q 0.021,0.0435 0.1036,0.32558 0.08,0.27059 0.2248,0.85096 0.1561,0.578 0.2014,0.79599 l 0.046,-0.01 q 0.3122,-1.26183 1.1089,-1.97804 0.7943,-0.72767 2.2744,-1.03536 2.2947,-0.47702 3.7501,0.82429 1.4555,1.30132 2.14,4.5942 z m -2.1589,0.49669 q -0.539,-2.59301 -1.4703,-3.56044 -0.9312,-0.96743 -2.4572,-0.65021 -1.2276,0.25521 -1.8202,0.91701 -0.5811,0.65941 -0.7192,1.83719 -0.1291,1.16392 0.2358,2.91936 0.508,2.44384 1.5291,3.44047 1.0211,0.99663 2.7765,0.63171 1.5375,-0.31961 2.0036,-1.5895 0.4753,-1.28375 -0.078,-3.94559 z m 3.423,5.9928 -0.7763,-9.69554 q -0.1066,-1.33168 -0.3057,-2.93809 l 1.9858,-0.15899 q 0.2655,2.14189 0.3001,2.5741 l 0.047,-0.004 q 0.3723,-1.66392 0.9787,-2.31204 0.6065,-0.64812 1.798,-0.74351 0.4205,-0.0337 0.8621,0.0485 l 0.1543,1.92743 q -0.4299,-0.0832 -1.1308,-0.027 -1.3083,0.10474 -1.9068,1.29301 -0.5994,1.17659 -0.4311,3.27924 l 0.5275,6.5883 z m 7.1529,-6.37154 q -0.091,2.17781 0.7618,3.39788 0.8524,1.22007 2.5853,1.29215 1.3699,0.057 2.2124,-0.45923 0.8542,-0.51573 1.182,-1.34658 l 1.828,0.60384 q -1.2604,2.95017 -5.2882,2.78263 -2.81,-0.11688 -4.2157,-1.85258 -1.3939,-1.73521 -1.2566,-5.03704 0.1306,-3.13791 1.6638,-4.75137 1.5449,-1.61297 4.273,-1.49949 5.585,0.2323 5.305,6.96476 l -0.012,0.28101 z m 6.9285,-1.3304 q -0.092,-2.00948 -0.8974,-2.95781 -0.8045,-0.96005 -2.3852,-1.0258 -1.5338,-0.0638 -2.4782,0.92906 -0.9323,0.98164 -1.077,2.77014 z m 12.7557,3.31156 q -1.2787,6.50839 -5.8552,5.60926 -2.8748,-0.56478 -3.439,-2.92087 l -0.057,-0.0113 q 0.028,0.10103 -0.338,1.96385 l -0.9556,4.86405 -2.0698,-0.40664 2.9052,-14.78763 q 0.3773,-1.92032 0.4303,-2.55482 l 2.0008,0.39309 q 0,0.0483 -0.031,0.34025 -0.031,0.28049 -0.1235,0.87145 -0.081,0.59323 -0.1236,0.81171 l 0.046,0.009 q 0.7779,-1.04145 1.7902,-1.39193 1.0146,-0.36198 2.4979,-0.0705 2.2998,0.45182 3.1355,2.21633 0.8357,1.76452 0.1873,5.06471 z m -2.1823,-0.38098 q 0.5105,-2.59876 0.028,-3.85196 -0.4823,-1.25321 -2.0116,-1.55367 -1.2304,-0.24173 -2.0335,0.13792 -0.7916,0.3819 -1.3764,1.41351 -0.5711,1.02236 -0.9168,2.7817 -0.4812,2.44927 0.073,3.76429 0.5537,1.31501 2.3131,1.66065 1.5408,0.30273 2.4637,-0.68636 0.9366,-0.99833 1.4607,-3.66608 z"
       id="text25"
       aria-label="prep" />
    <path
       class="displacy-arrowhead"
       d="M1270.0,179.0 L1278.0,167.0 1262.0,167.0"
       fill="currentColor"
       id="path25" />
  </g>
  <g
     class="displacy-arrow"
     id="g26">
    <path
       class="displacy-arc"
       id="arrow-bd1ee6007a6b433bbcfe4df49c9c2f8e-0-7"
       stroke-width="2px"
       d="M1295,177.0 C1295,89.5 1445.0,89.5 1445.0,177.0"
       fill="none"
       stroke="currentColor" />
    <path
       style="font-size:24px;-inkscape-font-specification:'Arial, Normal';letter-spacing:1px;text-anchor:middle"
       d="m 1362.1229,135.16955 q 1.2551,6.51296 -3.3247,7.39558 -2.8767,0.55441 -4.2832,-1.41819 l -0.058,0.0111 q 0.064,0.0832 0.4231,1.94733 l 0.938,4.86746 -2.0712,0.39917 -2.8519,-14.79801 q -0.3704,-1.92167 -0.5592,-2.52974 l 2.0023,-0.38587 q 0.02,0.0438 0.099,0.32705 0.076,0.27173 0.2124,0.85416 0.1476,0.5802 0.1897,0.79883 l 0.046,-0.009 q 0.3306,-1.25714 1.1376,-1.96166 0.8049,-0.71602 2.2893,-1.0021 2.3014,-0.44352 3.7377,0.87887 1.4364,1.3224 2.0729,4.62491 z m -2.166,0.46516 q -0.5012,-2.60059 -1.4182,-3.58149 -0.9171,-0.9809 -2.4475,-0.68596 -1.2312,0.23729 -1.8334,0.89038 -0.5906,0.65087 -0.7459,1.82651 -0.1461,1.16191 0.1932,2.92248 0.4724,2.45099 1.4788,3.4624 1.0065,1.01141 2.7671,0.67211 1.5419,-0.29716 2.0265,-1.56012 0.4939,-1.27669 -0.021,-3.94631 z m 12.9414,-0.77476 q 0.1269,3.3257 -1.2748,5.00927 -1.4017,1.68357 -4.1887,1.78989 -2.7753,0.10588 -4.2566,-1.52633 -1.4817,-1.64393 -1.6037,-4.84082 -0.2502,-6.55773 5.4293,-6.77441 2.9041,-0.11079 4.3354,1.44124 1.4309,1.54032 1.5591,4.90116 z m -2.2132,0.0844 q -0.1001,-2.62309 -0.9298,-3.77589 -0.8185,-1.16496 -2.657,-1.09482 -1.8502,0.0706 -2.6351,1.32017 -0.7737,1.23743 -0.6755,3.81368 0.096,2.50599 0.9519,3.73987 0.8675,1.22172 2.6123,1.15516 1.8971,-0.0724 2.6586,-1.32107 0.7733,-1.24913 0.6746,-3.8371 z m 12.9749,1.10937 q -0.7392,6.59149 -5.3742,6.07168 -1.4324,-0.16064 -2.3299,-0.78015 -0.8845,-0.62985 -1.3492,-1.84939 l -0.023,-0.003 q -0.041,0.36102 -0.1706,1.10112 -0.1289,0.72846 -0.1652,0.8423 l -2.0264,-0.22725 q 0.1404,-0.62104 0.3611,-2.58917 l 1.647,-14.68528 2.0962,0.23509 -0.5525,4.92615 q -0.085,0.75697 -0.2464,1.77658 l 0.047,0.005 q 0.7181,-1.14585 1.7318,-1.56282 1.0254,-0.41565 2.4462,-0.25631 2.3874,0.26774 3.3251,2.00023 0.9494,1.7338 0.5837,4.99461 z m -2.2088,-0.17697 q 0.2964,-2.64358 -0.2743,-3.86323 -0.5708,-1.21965 -2.143,-1.39596 -1.7701,-0.19852 -2.7211,0.92121 -0.9394,1.12104 -1.2346,3.75298 -0.2782,2.48054 0.3805,3.75722 0.66,1.26503 2.4418,1.46486 1.5838,0.17762 2.4132,-0.90859 0.8423,-1.09655 1.1375,-3.72849 z m 5.1298,-8.1657 0.4459,-1.96568 2.0571,0.46667 -0.4459,1.96568 z m -1.6918,16.99208 q -0.3967,1.74854 -1.2613,2.38154 -0.8646,0.633 -2.236,0.32188 -0.88,-0.19963 -1.4281,-0.43211 l 0.3604,-1.58855 0.693,0.22932 q 0.7886,0.17889 1.2019,-0.15994 0.4133,-0.33883 0.6829,-1.52738 l 3.0827,-13.58832 2.0571,0.46667 z"
       id="text26"
       aria-label="pobj" />
    <path
       class="displacy-arrowhead"
       d="M1445.0,179.0 L1453.0,167.0 1437.0,167.0"
       fill="currentColor"
       id="path26" />
  </g>
</svg>
